<svg width="265" height="176" viewBox="0 0 265 176" fill="none" xmlns="http://www.w3.org/2000/svg">
<g clip-path="url(#clip0)">
<path d="M62.0822 77.3424L64.5715 171.519H89.946L87.4568 77.3424H62.0822ZM32.4356 93.6203C29.6112 93.6534 26.8952 94.0343 24.361 95.0726L23.8838 169.021C23.8838 169.488 36.6312 170.908 51.2549 170.862C53.8462 157.147 53.3181 147.303 51.8913 95.1578C45.3904 95.1578 38.6492 93.5474 32.4356 93.6203ZM160.812 109.327L132.766 109.35L135.23 172.894L164.207 171.262L160.812 109.327ZM120.774 130.002L97.839 130.569L98.8701 173.174L122.51 173.4L120.774 130.002Z" fill="white"/>
<path d="M56.8322 174.422C51.8133 174.054 50.7594 173.957 47.2692 173.535C45.9393 173.374 43.9608 173.166 42.8726 173.072C41.7844 172.978 40.3994 172.787 39.7946 172.647C29.2453 172.36 18.3867 170.46 9.01735 168.72C3.929 168.088 1.5346 167 0.45171 164.825C-0.153692 163.609 -0.152226 163.399 0.466201 162.714C2.15232 161.588 6.30147 163.555 8.26574 163.788C9.66612 163.944 11.0368 164.119 11.3121 164.177C11.8909 164.297 11.9121 163.725 11.4973 159.215C10.911 152.837 10.8932 152.331 10.0968 118.913C9.74164 104.006 9.40515 48.9272 9.66302 47.8978C9.86879 47.0766 10.2138 46.8983 11.5958 46.8983C13.7208 46.8983 14.6004 47.8358 15.1362 50.6728C15.6358 53.3171 16.029 64.8232 16.272 83.8968C16.3723 91.77 16.7783 103.861 17.174 110.765C17.5694 117.669 17.8624 123.714 17.8248 124.199C17.7869 124.683 17.7412 125.278 17.7224 125.52C17.5028 128.36 18.61 153.938 19.1712 158.995C19.8759 165.344 19.9122 165.453 21.259 165.297C21.9016 165.223 22.395 164.964 22.3558 164.721C22.3162 164.479 22.1644 161.803 22.0186 158.775C21.8725 155.747 21.6406 152.021 21.5034 150.495C21.0137 145.052 21.2287 127.754 21.8306 124.172C22.2226 121.837 22.4195 116.57 22.4228 108.323C22.4261 97.1 22.3542 95.8584 21.6248 94.7432C20.1046 92.419 20.1602 92.4085 34.3385 92.341C43.201 91.6349 46.476 91.9435 51.975 92.48C55.6726 92.8271 56.4642 93.3497 56.4882 95.4589C56.5014 96.6511 56.0932 96.8673 53.9742 96.7885C54.2578 103.611 54.4184 107.761 54.3725 115.334C54.5704 116.576 54.7172 119.079 54.6987 120.895C54.6503 125.666 55.0784 141.915 55.3953 147.323C54.9063 152.989 56.4892 160.071 56.2686 164.954C56.0572 169.335 55.7981 168.989 59.3601 169.081L61.1187 169.126L61.0024 166.703C60.9381 165.371 60.8148 145.848 60.7281 123.318C60.6417 100.789 60.4275 81.4346 60.2521 80.3092C59.7298 76.2281 63.4296 75.8346 65.6941 75.7395C72.0399 75.3682 74.0513 75.3357 78.2983 75.214C87.7106 74.9361 88.681 75.1578 88.5201 77.549C88.4677 78.3313 88.6474 79.2405 88.9201 79.5695C90.1415 81.0437 90.8719 88.4476 90.9115 99.7534C90.962 114.102 90.9311 118.542 90.7701 120.455C90.5367 123.225 90.5929 129.783 90.9147 137.413C91.3968 146.92 91.9656 156.793 92.3442 165.93C92.4985 167.928 92.7249 169.662 92.8469 169.784C92.9692 169.907 94.0618 170.007 95.2756 170.007H97.4822L97.2313 157.674C97.0931 150.891 96.8646 144.152 96.7232 142.698C96.4389 139.77 96.3481 134.45 96.3296 131.112C96.2627 127.547 100.563 128.902 102.338 128.65C104.602 128.318 109.608 127.983 115.992 127.737C122.094 127.121 123.641 126.694 123.892 129.522C123.757 131.502 123.572 130.682 123.854 135.001C124.02 137.539 124.323 141.696 124.529 144.24C124.888 148.675 124.919 155.478 124.626 165.382L124.489 170.007L127.319 169.903C128.875 169.847 130.692 169.784 131.357 169.764C132.022 169.744 132.586 169.493 132.61 169.206C132.691 168.238 132.684 161.235 132.594 154.811C132.514 149.059 131.573 134.512 131.028 130.586C130.91 129.738 130.618 126.467 130.379 123.318C130.141 120.169 129.721 115.511 129.448 112.967C128.851 107.418 129.166 106.183 131.284 105.758C132.285 105.558 132.937 105.68 133.477 106.17C134.04 106.68 134.756 106.799 136.153 106.613C137.203 106.474 141.425 106.254 145.536 106.124C149.647 105.995 154.941 105.802 157.301 105.696C162.287 105.865 163.906 104.585 163.989 109.003C163.989 109.003 163.814 117.84 163.852 119.574C163.881 121.149 164.179 128.139 164.514 135.109C164.923 143.629 164.979 148.05 164.684 148.602C164.208 149.494 164.493 154.647 165.138 156.793C165.356 157.52 165.642 159.799 165.772 161.858C165.902 163.917 166.075 165.998 166.158 166.483C166.24 166.968 166.333 167.584 166.364 167.853C166.403 168.187 167.917 168.299 171.147 168.205C173.746 168.129 179.372 167.963 183.647 167.836L191.421 167.605L192.551 168.95C193.781 170.415 193.99 171.861 193.131 172.97C192.661 173.577 190.92 173.72 181.149 173.96C167.723 174.289 158.896 174.598 156.747 174.816C155.901 174.901 151.252 175.095 146.415 175.246C141.579 175.398 135.742 175.631 133.445 175.765C107.743 176.19 80.6842 176.196 56.8312 174.422H56.8322ZM87.8155 164.941C87.7473 162.156 87.5015 156.903 87.2687 153.269C86.5983 142.804 86.3177 129.861 86.2382 105.7C86.1802 88.0949 86.0327 82.7715 85.5565 81.0878L84.9488 78.9394L80.0691 79.2294C72.4042 79.6851 65.2592 80.2609 65.1131 80.4347C65.0396 80.5219 65.1132 83.6657 65.2751 87.4206C65.4374 91.1755 65.4048 94.8423 65.2023 95.5691C64.9999 96.2958 64.9407 98.2779 65.071 99.9737C65.5019 105.58 65.2456 127.637 64.6642 134.99C64.5013 137.049 64.3273 143.824 64.2772 150.044C64.2673 158.021 64.6929 161.654 64.9524 166.714C65.0062 167.957 65.2119 169.074 65.4084 169.195C72.762 169.736 81.105 170.334 87.9392 170.007L87.8155 164.941ZM120.255 159.251C120.255 153.194 120.065 146.298 119.833 143.927C119.6 141.555 119.285 137.872 119.132 135.741L118.854 131.867L116.587 131.927C115.34 131.96 112.242 132.193 109.703 132.445C107.164 132.697 104.118 132.885 102.934 132.862L100.781 132.821L101.097 137.98C101.271 140.817 101.467 143.634 101.532 144.24C101.598 144.846 101.683 150.827 101.72 157.531C101.784 168.756 101.85 169.734 102.559 169.879C102.982 169.965 107.137 170.087 111.792 170.15L120.255 170.263V159.251ZM149.054 169.072C150.989 168.911 153.957 168.728 155.65 168.664C157.342 168.6 159.193 168.529 159.763 168.506C160.781 168.466 160.793 168.411 160.531 165.052C160.287 161.944 160.102 158.135 159.602 146.002C159.508 143.7 159.229 139.042 158.983 135.651C158.737 132.259 158.426 126.611 158.292 123.098C158.158 119.585 157.938 115.841 157.802 114.777C157.772 113.395 158.96 109.952 156.55 110.151C149.49 110.474 135.548 111.062 135.484 112.086C135.282 113.126 134.955 113.925 135.017 119.97C135.061 124.306 135.223 128.057 135.377 128.306C135.531 128.555 135.962 132.49 136.336 137.05C137.081 146.158 137.243 156.86 136.745 164.132C136.568 166.715 136.555 169.04 136.716 169.3C137.009 169.775 141.598 169.69 149.055 169.072H149.054ZM50.7098 162.563C50.5462 159.874 50.1809 155.791 49.8976 153.49C49.1817 147.672 48.7181 118.212 49.2358 111.426C49.347 109.972 49.2065 105.936 48.9206 102.456L48.4031 96.1294L43.989 96.4582C41.5614 96.639 38.8825 96.7511 38.036 96.7075C33.5216 96.475 26.8954 96.6432 26.5399 96.9993C26.2896 97.2501 26.3135 97.8856 26.6024 98.6467C27.1791 100.166 27.3793 114.396 26.8751 118.033C26.6737 119.486 26.4295 121.865 26.3325 123.318C26.2352 124.772 26.0843 126.754 25.9973 127.723C25.6253 131.861 25.7263 154.437 26.1309 157.523C26.374 159.378 26.4716 161.856 26.348 163.029C26.2243 164.202 26.2825 165.393 26.4777 165.677C26.6726 165.96 28.4136 166.311 30.346 166.456C32.2783 166.601 34.4525 166.815 35.178 166.931C35.9035 167.047 39.6583 167.451 43.5214 167.83C52.2419 168.813 51.1971 170.268 50.7098 162.563V162.563Z" fill="#030303"/>
</g>
<g clip-path="url(#clip1)">
<path d="M180.795 102.777L179.841 4.94149L244.26 3.66028L261.66 20.1293L259.881 106.481L180.795 102.777Z" fill="white"/>
<path d="M259.481 108.651C233.898 109.253 206.12 108.624 183.366 106.427C182.605 106.349 181.771 106.272 181.513 106.256C181.255 106.241 180.403 105.558 179.619 104.739C178.303 103.364 178.213 103.119 178.44 101.515C178.674 72.1534 177.706 42.7326 177.644 13.3457C177.649 7.13226 177.952 4.04934 178.647 3.13916C178.945 2.74917 179.224 2.37097 179.267 2.29868C179.31 2.22643 179.712 2.36483 180.162 2.60627C180.749 2.92192 181.675 2.92802 183.457 2.628C186.78 2.06856 189.125 1.88739 196.609 1.61193C206.458 1.24939 239.895 1.15988 239.895 1.49607C239.895 1.90568 241.703 1.60251 243.81 0.839299C245.551 0.209041 245.551 0.209021 246.794 1.41878C247.477 2.08417 248.196 2.62858 248.39 2.62858C253.727 7.57961 258.425 12.0014 263.141 17.3633C263.641 17.935 264.057 18.7386 264.066 19.149C264.216 47.2466 262.603 74.7889 264.389 103.244C264.442 103.951 264.298 104.933 264.069 105.427C263.841 105.921 263.466 106.796 263.238 107.372C262.901 108.221 262.513 108.449 261.191 108.575C260.295 108.661 259.525 108.695 259.481 108.651V108.651ZM258.392 103.051C260.352 79.8449 257.398 51.2294 258.48 29.8184C258.702 25.8888 258.963 22.0738 259.061 21.3408C259.211 20.2185 259.132 20.0434 258.56 20.232C252.819 22.1273 244.693 23.1003 243.971 21.979C243.795 21.7061 243.642 18.4915 243.632 14.8355C243.612 7.62911 243.844 5.57796 242.21 6.41857C224.486 5.47248 203.115 6.43846 187.912 6.02937C181.722 5.41629 182.33 5.04617 182.159 9.53183C182.5 36.3251 183.104 67.8032 183.106 94.4136C183.097 101.454 183.097 101.454 184.516 101.41C185.297 101.386 188.337 101.561 191.272 101.799C213.684 103.592 237.38 103.083 258.392 103.051V103.051ZM239.779 94.9097C227.164 93.4128 209.641 95.7032 196.835 92.9823C195.52 92.6646 195.135 92.1937 195.29 91.0909C195.417 90.1903 195.562 90.1502 198.846 90.1069C215.607 91.069 230.837 91.0346 245.434 92.5865C248.64 92.9257 248.479 92.8554 248.856 94.0855C249.111 94.9208 249.006 94.9827 247.225 95.0435C242.735 95.1966 240.727 95.1606 239.779 94.9097V94.9097ZM239.903 89.2109C227.498 87.8602 211.34 89.2818 199.136 87.9219C195.599 87.52 194.743 87.2818 193.668 86.4012C192.414 85.3733 192.406 85.3437 193.118 84.4877C193.761 83.7152 194.018 83.6616 195.423 84.0073C196.292 84.2212 198.27 84.3708 199.817 84.3398C213.157 84.7616 230.082 85.2286 243.64 86.0066C245.542 86.1123 247.276 86.3092 247.494 86.4443C248.061 86.7961 247.984 88.9045 247.396 89.1247C246.865 89.3235 240.097 89.4014 239.903 89.2109ZM193.249 69.4947C193.249 67.771 194.295 67.5967 203.108 67.8514C213.807 68.0875 223.765 69.1863 234.361 69.5158C237.887 69.619 237.919 69.6295 237.919 70.6789C237.919 71.2118 237.696 71.7923 237.425 71.9689C230.664 73.1146 195.444 70.7939 193.249 69.4947V69.4947ZM231.807 65.4264C222.403 64.5204 209 63.9082 196.118 62.4842C195.289 62.0849 195.027 61.6761 195.027 60.7776C195.027 59.778 195.21 59.5623 196.213 59.377C196.866 59.2566 198.111 59.2816 198.981 59.4326C199.85 59.5837 202.341 59.8231 204.515 59.9647C216.014 60.7504 226.039 61.5847 237.553 62.3768C239.702 62.5249 240.943 62.4168 241.952 61.9936C243.231 61.4572 243.411 61.4653 243.954 62.0839C244.346 62.5293 244.446 63.0422 244.244 63.5714C243.627 65.1942 242.932 65.3844 237.325 65.4648C234.353 65.5074 231.87 65.49 231.807 65.4264V65.4264ZM234.756 56.1064C224.138 55.4963 209.389 55.5449 195.607 54.2242C194.469 53.7508 193.923 52.6142 194.326 51.5582C194.531 51.0216 195.78 50.9796 204.676 51.2101C217.681 51.7198 231.323 52.557 243.453 52.8257C249.476 52.9551 248.989 52.8577 248.981 53.932C248.969 55.8339 248.675 55.9211 241.616 56.119C237.952 56.2217 234.865 56.2161 234.756 56.1065V56.1064ZM197.987 39.205C194.467 39.3131 191.667 38.7717 191.667 37.9832C191.667 37.1585 192.875 36.2929 194.251 36.1319C208.345 35.4369 223.455 36.6698 236.876 36.7354C242.281 36.7557 246.862 36.8705 247.055 36.9904C247.248 37.1103 247.406 37.5596 247.406 37.9887C247.406 39.4267 246.374 39.5482 233.044 39.6799C220.87 39.6427 208.678 38.8872 197.987 39.205V39.205ZM195.032 31.6743C193.129 31.5187 192.458 31.0225 192.458 29.7698C192.458 29.0703 192.688 28.8133 193.347 28.7766C193.837 28.7496 195.304 28.6687 196.609 28.5972C197.913 28.5257 199.514 28.3788 200.166 28.2707C216.62 27.8652 223.363 28.2588 240.884 28.0028C247.999 27.8952 247.999 27.8951 248.374 28.9622C249.119 31.0829 248.563 31.2091 238.297 31.25C225.248 32.459 212.384 30.4011 199.178 31.5317C197.765 31.6809 195.899 31.7451 195.032 31.6743V31.6743ZM222.745 22.5825C222.693 22.5324 216.435 22.395 208.839 22.2771C191.185 22.003 192.656 22.1472 192.656 20.6889C192.656 19.4981 192.656 19.4981 202.736 19.5022C216.068 19.5076 231.961 20.0505 232.855 20.531C233.248 20.7424 233.57 21.1468 233.57 21.4297C233.57 22.521 231.835 22.8971 227.316 22.7848C224.854 22.7237 222.797 22.6326 222.745 22.5825ZM254.423 17.6685C255.961 17.0914 255.42 15.9771 252.163 13.0098C250.431 11.4318 248.906 10.1027 248.774 10.0562C248.642 10.0098 248.457 11.8936 248.363 14.2425C248.191 18.5133 248.191 18.5133 250.862 18.2578C252.332 18.1173 253.934 17.8521 254.423 17.6685V17.6685Z" fill="#030303"/>
</g>
<defs>
<clipPath id="clip0">
<rect width="193.653" height="129.102" fill="white" transform="translate(0 46.8983)"/>
</clipPath>
<clipPath id="clip1">
<rect width="86.7564" height="108.445" fill="white" transform="translate(177.644 0.421631)"/>
</clipPath>
</defs>
</svg>
