<svg width="103" height="68" viewBox="0 0 103 68" fill="none" xmlns="http://www.w3.org/2000/svg">
<g clip-path="url(#clip0)">
<path d="M24.0439 29.7908L25.008 66.2646H34.8354L33.8713 29.7908H24.0439ZM12.562 36.0951C11.4682 36.1079 10.4163 36.2554 9.43483 36.6575L9.25 65.297C9.25 65.4781 14.187 66.0278 19.8506 66.0102C20.8542 60.6983 20.6497 56.886 20.0971 36.6905C17.5793 36.6905 14.9685 36.0668 12.562 36.0951ZM62.281 42.1782L51.4192 42.1869L52.3736 66.7973L63.5958 66.1651L62.281 42.1782ZM46.775 50.1854L37.8922 50.4051L38.2916 66.9055L47.4469 66.9932L46.775 50.1854Z" fill="white"/>
<path d="M22.0106 67.3888C20.0668 67.2464 19.6587 67.2086 18.307 67.0453C17.7919 66.9831 17.0256 66.9024 16.6042 66.8661C16.1827 66.8297 15.6463 66.7557 15.4121 66.7015C11.3265 66.5903 7.12103 65.8545 3.49234 65.1804C1.52167 64.9358 0.594338 64.5142 0.174943 63.672C-0.0595236 63.2012 -0.0589559 63.1197 0.180556 62.8545C0.833574 62.4183 2.44051 63.18 3.20125 63.2703C3.74361 63.331 4.27445 63.3987 4.38109 63.4209C4.60523 63.4675 4.61347 63.2462 4.4528 61.4995C4.22573 59.029 4.21883 58.8331 3.9104 45.8908C3.77286 40.1174 3.64253 18.7858 3.74241 18.3871C3.8221 18.0691 3.95573 18 4.49097 18C5.31395 18 5.6546 18.3631 5.86213 19.4618C6.05561 20.4859 6.20789 24.9422 6.30201 32.3292C6.34084 35.3784 6.4981 40.0611 6.65135 42.735C6.80448 45.4089 6.91797 47.7502 6.90341 47.9379C6.88872 48.1255 6.87103 48.3558 6.86375 48.4496C6.77869 49.5493 7.20749 59.4555 7.42486 61.4142C7.69778 63.873 7.71184 63.9153 8.23341 63.8549C8.48232 63.826 8.6734 63.7257 8.6582 63.6318C8.64288 63.538 8.58407 62.5017 8.52762 61.3289C8.47105 60.1561 8.3812 58.7131 8.32807 58.1222C8.13842 56.0143 8.22171 49.3145 8.45479 47.9273C8.60664 47.0233 8.68287 44.9831 8.68415 41.7893C8.68542 37.4427 8.65759 36.9618 8.37509 36.5299C7.78634 35.6298 7.80788 35.6257 13.299 35.5995C16.7314 35.3261 17.9998 35.4456 20.1295 35.6534C21.5615 35.7878 21.8681 35.9902 21.8774 36.8071C21.8825 37.2688 21.7244 37.3526 20.9037 37.322C21.0136 39.9644 21.0758 41.5717 21.058 44.5047C21.1346 44.9856 21.1915 45.9548 21.1844 46.6585C21.1656 48.5061 21.3314 54.7991 21.4541 56.8936C21.2647 59.0879 21.8778 61.8308 21.7924 63.722C21.7105 65.4187 21.6101 65.2847 22.9897 65.3202L23.6708 65.3377L23.6257 64.3995C23.6008 63.8834 23.5531 56.3222 23.5195 47.5967C23.486 38.8712 23.4031 31.3756 23.3351 30.9397C23.1328 29.3592 24.5658 29.2068 25.4428 29.17C27.9005 29.0261 28.6795 29.0135 30.3243 28.9664C33.9696 28.8588 34.3454 28.9447 34.2831 29.8707C34.2628 30.1737 34.3324 30.5259 34.438 30.6533C34.911 31.2242 35.1939 34.0917 35.2093 38.4703C35.2288 44.0276 35.2168 45.7469 35.1545 46.4879C35.0641 47.5606 35.0859 50.1004 35.2105 53.0554C35.3972 56.7376 35.6175 60.5614 35.7641 64.1001C35.8239 64.8737 35.9116 65.5454 35.9588 65.5927C36.0062 65.6401 36.4293 65.6789 36.8994 65.6789H37.754L37.6569 60.9024C37.6034 58.2754 37.5148 55.6654 37.4601 55.1025C37.35 53.9683 37.3148 51.9081 37.3077 50.6151C37.2817 49.2347 38.9472 49.7593 39.6348 49.6617C40.5117 49.5331 42.4501 49.4035 44.9229 49.3082C47.2858 49.0696 47.885 48.9043 47.9824 49.9993C47.9301 50.7664 47.8584 50.4487 47.9676 52.1216C48.0317 53.1043 48.1494 54.7144 48.229 55.6996C48.368 57.4174 48.3801 60.0521 48.2667 63.8877L48.2137 65.6789L49.3095 65.6388C49.9122 65.6168 50.616 65.5925 50.8735 65.5848C51.1311 65.5771 51.3495 65.4799 51.3589 65.3689C51.3903 64.994 51.3872 62.2818 51.3524 59.7936C51.3215 57.566 50.9572 51.932 50.7459 50.4114C50.7002 50.083 50.5873 48.8164 50.4948 47.5967C50.4024 46.377 50.24 44.573 50.1341 43.5879C49.9028 41.4388 50.0247 40.9603 50.845 40.796C51.2328 40.7183 51.4854 40.7656 51.6946 40.9553C51.9126 41.1529 52.19 41.1989 52.731 41.1271C53.1374 41.0731 54.7727 40.988 56.3647 40.9378C57.9569 40.8876 60.0074 40.813 60.9213 40.772C62.8523 40.8373 63.4794 40.3415 63.5117 42.0526C63.5117 42.0526 63.4438 45.4751 63.4584 46.1467C63.4699 46.7566 63.5852 49.464 63.7148 52.1632C63.8734 55.4629 63.8951 57.1752 63.7809 57.389C63.5962 57.7345 63.7068 59.73 63.9566 60.5613C64.0412 60.8428 64.1516 61.7255 64.2019 62.523C64.2523 63.3205 64.3195 64.1265 64.3516 64.3141C64.3835 64.5018 64.4195 64.7405 64.4314 64.8447C64.4464 64.9741 65.0329 65.0173 66.2837 64.981C67.2905 64.9517 69.4692 64.8875 71.1251 64.8383L74.1359 64.7487L74.5733 65.2695C75.0499 65.837 75.1308 66.3969 74.7979 66.8266C74.6159 67.0614 73.9416 67.1171 70.1576 67.2098C64.9578 67.3373 61.539 67.4572 60.7069 67.5414C60.3792 67.5745 58.5785 67.6496 56.7053 67.7082C54.8322 67.7667 52.5717 67.8571 51.682 67.9091C41.7279 68.0735 31.2483 68.076 22.0102 67.3888H22.0106ZM34.0102 63.7171C33.9838 62.6382 33.8886 60.6039 33.7984 59.1966C33.5388 55.1434 33.4301 50.1306 33.3993 40.7732C33.3769 33.9551 33.3197 31.8934 33.1353 31.2413L32.9 30.4092L31.0101 30.5216C28.0416 30.6981 25.2743 30.9211 25.2178 30.9883C25.1893 31.0221 25.2178 32.2397 25.2805 33.6939C25.3433 35.1482 25.3307 36.5683 25.2523 36.8498C25.1739 37.1312 25.151 37.8989 25.2014 38.5557C25.3684 40.7268 25.2691 49.2694 25.0439 52.1173C24.9808 52.9148 24.9134 55.5384 24.894 57.9476C24.8902 61.0369 25.055 62.444 25.1555 64.4034C25.1764 64.8849 25.256 65.3174 25.3321 65.3646C28.1801 65.5741 31.4113 65.8054 34.0581 65.6789L34.0102 63.7171ZM46.5739 61.5131C46.5739 59.1674 46.5003 56.4968 46.4101 55.5783C46.32 54.6599 46.1979 53.2332 46.1388 52.4081L46.0312 50.9077L45.1532 50.931C44.6702 50.9438 43.4705 51.0341 42.4871 51.1317C41.5037 51.2292 40.324 51.3019 39.8654 51.2931L39.0315 51.2771L39.154 53.2751C39.2213 54.374 39.2972 55.465 39.3226 55.6996C39.3482 55.9341 39.3809 58.2506 39.3954 60.8473C39.42 65.1944 39.4456 65.5734 39.7201 65.6294C39.8839 65.6629 41.4931 65.71 43.296 65.7342L46.5739 65.778V61.5131ZM57.7275 65.3167C58.4767 65.2545 59.6261 65.1835 60.2818 65.1587C60.9373 65.134 61.6542 65.1066 61.8747 65.0978C62.2691 65.082 62.2739 65.0606 62.1721 63.7598C62.0779 62.5563 62.006 61.0811 61.8127 56.3819C61.776 55.4906 61.6681 53.6866 61.5729 52.3731C61.4776 51.0596 61.3572 48.8719 61.3052 47.5114C61.2534 46.151 61.1679 44.7009 61.1154 44.289C61.1039 43.7535 61.5639 42.4202 60.6304 42.4972C57.896 42.6223 52.4966 42.8501 52.4719 43.2468C52.3937 43.6493 52.2669 43.9588 52.2909 46.3C52.3081 47.9793 52.3708 49.4321 52.4303 49.5285C52.4898 49.625 52.6569 51.1489 52.8016 52.915C53.0905 56.4425 53.1532 60.5873 52.9603 63.4036C52.8918 64.4039 52.8866 65.3046 52.9488 65.4051C53.0623 65.5891 54.8397 65.5562 57.7278 65.3167H57.7275ZM19.6395 62.7959C19.5761 61.7545 19.4346 60.1732 19.3249 59.2819C19.0477 57.0287 18.8681 45.6193 19.0686 42.9909C19.1117 42.4279 19.0573 40.8647 18.9465 39.5171L18.7461 37.0668L17.0366 37.1941C16.0964 37.2641 15.0589 37.3076 14.731 37.2907C12.9826 37.2006 10.4164 37.2658 10.2787 37.4037C10.1817 37.5008 10.191 37.747 10.3029 38.0417C10.5262 38.6303 10.6038 44.1413 10.4085 45.5497C10.3305 46.1126 10.2359 47.0338 10.1984 47.5967C10.1607 48.1596 10.1022 48.9273 10.0685 49.3026C9.92447 50.9053 9.96358 59.6487 10.1203 60.8441C10.2144 61.5626 10.2522 62.5221 10.2043 62.9764C10.1565 63.4307 10.179 63.8921 10.2546 64.0019C10.3301 64.1116 11.0043 64.2474 11.7527 64.3037C12.5011 64.36 13.3432 64.4429 13.6241 64.4877C13.9051 64.5326 15.3593 64.6892 16.8555 64.8356C20.2328 65.2165 19.8282 65.7802 19.6395 62.7959V62.7959Z" fill="#030303"/>
</g>
<g clip-path="url(#clip1)">
<path d="M70.0203 39.6414L69.6509 1.75047L94.5998 1.25427L101.339 7.63258L100.65 41.0759L70.0203 39.6414Z" fill="white"/>
<path d="M100.495 41.9162C90.5865 42.1495 79.8285 41.9059 71.0159 41.055C70.7212 41.0246 70.3983 40.9948 70.2984 40.9888C70.1984 40.9828 69.8684 40.7184 69.5649 40.4013C69.0552 39.8687 69.0204 39.7737 69.1082 39.1527C69.1989 27.7811 68.824 16.3867 68.7998 5.0054C68.802 2.59897 68.9194 1.40498 69.1886 1.05248C69.3039 0.901438 69.4119 0.754961 69.4285 0.726967C69.4451 0.698984 69.6011 0.752586 69.7751 0.846091C70.0026 0.96834 70.3611 0.970703 71.0513 0.854508C72.3382 0.637843 73.2464 0.567675 76.1448 0.460992C79.9596 0.320584 92.9094 0.285919 92.9094 0.416123C92.9094 0.574759 93.6093 0.457344 94.4256 0.161759C95.0997 -0.0823344 95.0997 -0.0823421 95.5811 0.386187C95.8459 0.643886 96.1241 0.854733 96.1993 0.854733C98.2662 2.77222 100.086 4.48474 101.912 6.56136C102.106 6.78279 102.267 7.09399 102.27 7.25294C102.328 18.1349 101.704 28.8018 102.396 39.8222C102.416 40.0959 102.36 40.4764 102.272 40.6677C102.183 40.8589 102.038 41.1979 101.95 41.421C101.819 41.7497 101.669 41.838 101.157 41.887C100.81 41.9202 100.512 41.9334 100.495 41.9162V41.9162ZM100.073 39.7474C100.832 30.7599 99.6879 19.6774 100.107 11.3851C100.193 9.8632 100.294 8.38572 100.332 8.10181C100.39 7.66717 100.359 7.59934 100.138 7.67238C97.9147 8.40641 94.7676 8.78325 94.4877 8.34899C94.4196 8.24331 94.3606 6.99833 94.3567 5.58238C94.349 2.7914 94.4387 1.997 93.8058 2.32256C86.9416 1.95615 78.6647 2.33027 72.7766 2.17183C70.3793 1.93439 70.6147 1.79104 70.5487 3.5283C70.6807 13.9051 70.9145 26.0963 70.9153 36.4023C70.9117 39.1289 70.9117 39.1289 71.4614 39.112C71.7637 39.1027 72.9412 39.1704 74.078 39.2625C82.7579 39.9569 91.9354 39.7597 100.073 39.7474V39.7474ZM92.8642 36.5944C87.9787 36.0147 81.1921 36.9017 76.2326 35.8479C75.7231 35.7249 75.5741 35.5426 75.6343 35.1154C75.6834 34.7667 75.7396 34.7511 77.0113 34.7343C83.5029 35.107 89.4011 35.0937 95.0545 35.6947C96.296 35.826 96.2338 35.7988 96.3796 36.2752C96.4787 36.5987 96.4378 36.6227 95.748 36.6462C94.0091 36.7056 93.2314 36.6916 92.8642 36.5944V36.5944ZM92.9123 34.3873C88.1081 33.8642 81.8503 34.4148 77.1235 33.8881C75.7538 33.7324 75.4222 33.6402 75.0061 33.2992C74.5203 32.9011 74.517 32.8896 74.7929 32.5581C75.0419 32.2589 75.1413 32.2381 75.6855 32.372C76.0224 32.4549 76.7881 32.5128 77.3873 32.5008C82.5539 32.6642 89.1088 32.845 94.3596 33.1463C95.0963 33.1873 95.7681 33.2635 95.8523 33.3159C96.0719 33.4521 96.0419 34.2687 95.8142 34.3539C95.6086 34.431 92.9876 34.4611 92.9123 34.3873ZM74.8435 26.7514C74.8435 26.0838 75.2486 26.0163 78.6619 26.115C82.8056 26.2064 86.6623 26.632 90.766 26.7596C92.1315 26.7996 92.1439 26.8036 92.1439 27.2101C92.1439 27.4164 92.0578 27.6413 91.9525 27.7097C89.3342 28.1534 75.6938 27.2546 74.8435 26.7514V26.7514ZM89.777 25.1758C86.1347 24.8249 80.9437 24.5878 75.955 24.0363C75.6336 23.8817 75.5324 23.7234 75.5324 23.3754C75.5324 22.9882 75.6032 22.9047 75.9917 22.8329C76.2443 22.7863 76.7266 22.796 77.0634 22.8545C77.4003 22.913 78.3648 23.0057 79.2069 23.0605C83.6602 23.3648 87.5428 23.6879 92.0021 23.9947C92.8344 24.0521 93.3153 24.0102 93.7059 23.8463C94.2011 23.6386 94.271 23.6417 94.4814 23.8813C94.6329 24.0538 94.6716 24.2524 94.5937 24.4574C94.3545 25.0859 94.0853 25.1595 91.9137 25.1907C90.763 25.2072 89.8014 25.2004 89.777 25.1758V25.1758ZM90.9191 21.5663C86.8068 21.33 81.0944 21.3488 75.7569 20.8373C75.3161 20.6539 75.1046 20.2138 75.2609 19.8048C75.3404 19.597 75.8241 19.5807 79.2694 19.6699C84.3059 19.8673 89.5895 20.1916 94.2873 20.2957C96.6197 20.3458 96.4312 20.308 96.4284 20.7241C96.4234 21.4607 96.3098 21.4945 93.5756 21.5711C92.1566 21.6109 90.9612 21.6087 90.9191 21.5663V21.5663ZM76.6787 15.0205C75.3155 15.0623 74.2311 14.8527 74.2311 14.5473C74.2311 14.2279 74.6988 13.8926 75.2316 13.8303C80.6903 13.5611 86.5421 14.0386 91.7399 14.064C93.8333 14.0719 95.6074 14.1163 95.6822 14.1628C95.7571 14.2092 95.8183 14.3832 95.8183 14.5494C95.8183 15.1063 95.4185 15.1534 90.2557 15.2044C85.5412 15.19 80.8193 14.8974 76.6787 15.0205V15.0205ZM75.5344 12.1039C74.797 12.0436 74.5373 11.8514 74.5373 11.3663C74.5373 11.0954 74.6264 10.9958 74.8817 10.9817C75.0712 10.9712 75.6396 10.9399 76.1448 10.9122C76.6501 10.8845 77.2701 10.8276 77.5227 10.7857C83.8949 10.6286 86.5065 10.7811 93.2921 10.682C96.048 10.6403 96.048 10.6403 96.1932 11.0535C96.4818 11.8748 96.2664 11.9237 92.2905 11.9396C87.2365 12.4078 82.2544 11.6108 77.14 12.0487C76.5927 12.1065 75.8701 12.1313 75.5344 12.1039V12.1039ZM86.2672 8.58273C86.2469 8.56333 83.8233 8.5101 80.8814 8.46442C74.0444 8.35828 74.6138 8.41414 74.6138 7.84935C74.6138 7.38817 74.6138 7.38816 78.5179 7.38974C83.6811 7.39182 89.8364 7.60208 90.1827 7.78818C90.3351 7.87006 90.4598 8.02667 90.4598 8.13624C90.4598 8.55889 89.7876 8.70455 88.0375 8.66107C87.0842 8.63739 86.2875 8.60212 86.2672 8.58273ZM98.5358 6.67956C99.1314 6.45604 98.9221 6.0245 97.6607 4.87529C96.9899 4.26416 96.3992 3.74939 96.3481 3.7314C96.297 3.71341 96.2253 4.44301 96.1888 5.35272C96.1223 7.00675 96.1223 7.00676 97.1569 6.90781C97.7258 6.85339 98.3464 6.75067 98.5358 6.67956V6.67956Z" fill="#030303"/>
</g>
<defs>
<clipPath id="clip0">
<rect width="75" height="50" fill="white" transform="translate(0 18)"/>
</clipPath>
<clipPath id="clip1">
<rect width="33.6" height="42" fill="white" transform="translate(68.7998)"/>
</clipPath>
</defs>
</svg>
