<svg width="146" height="138" viewBox="0 0 146 138" fill="none" xmlns="http://www.w3.org/2000/svg">
<g clip-path="url(#clip0)">
<path d="M80.0106 39.9176C78.8052 39.9239 77.5574 39.9752 76.2677 40.0752C35.0126 43.2646 42.5537 73.0565 54.6411 83.8014C66.7286 94.5464 63.754 123.216 63.754 123.216C71.6148 136.931 82.1568 133.302 86.7498 122.77C91.3427 112.238 89.9866 94.8031 97.3279 90.6987C112.354 82.2976 117.378 39.7392 80.0106 39.9176V39.9176Z" fill="white"/>
<path d="M65.8254 0C63.2404 0 62.8991 1.84587 64.1268 9.26558C64.97 14.3615 66.1082 19.2814 66.6517 20.2003C68.6231 23.5285 70.0138 19.0852 70.0138 12.9961C70.0138 4.43048 69.6584 0 65.8254 0ZM122.699 13.6224C122.588 13.6198 122.471 13.6383 122.352 13.6896C113.88 17.2744 109.289 19.4683 108.006 22.8105C105.914 28.2628 113.919 26.8262 119.656 20.7197C122.468 17.7267 124.199 14.7104 123.506 14.0177C123.327 13.8389 123.035 13.6306 122.699 13.6224ZM25.5653 21.8013C20.6568 21.8013 20.6013 22.6791 25.076 29.5083C28.0533 34.0525 34.6351 37.0722 34.6351 33.8946C34.6351 29.5739 28.8059 21.8013 25.5653 21.8013ZM51.4785 82.8973C60.0489 90.9893 58.6171 98.0986 58.6171 109.267C58.6171 118.715 58.7893 124.379 60.4815 126.448C63.076 129.621 66.7527 128.424 67.4147 131.171C69.6679 140.517 82.5763 139.002 84.1101 133.137C84.7154 130.822 86.5853 128.4 88.2659 127.755C90.3587 126.952 91.3184 122.914 91.3184 114.934C91.3184 104.525 91.7132 98.798 96.9297 93.7658C109.26 81.8715 115.347 67.9196 107.908 53.3347C103.007 43.7256 93.7563 36.3385 76.6005 36.8158C35.9332 37.9469 34.0043 69.3249 51.4785 82.8973ZM103.554 56.6012C105.914 62.2543 105.939 72.3987 99.9184 81.2839C92.8898 91.6574 88.7418 94.2024 90.2544 84.7359C90.8114 81.2508 91.5415 78.239 93.4098 75.2145C95.669 71.5575 94.8539 60.4021 91.8982 59.417C90.4166 58.9233 88.0524 61.0473 86.6438 64.1392C83.4315 71.1888 81.53 71.1852 74.9763 64.1126C66.7739 55.262 61.0418 63.0413 68.5002 72.9015C70.2604 75.229 71.3704 80.3934 71.6974 84.3473C72.4914 90.1875 72.0106 94.1762 71.7214 96.5654C71.3026 100.016 64.1916 99.0998 64.3167 97.6147C63.3907 78.1525 44.8196 77.6143 46.7421 61.358C48.2174 48.8863 61.8806 43.1355 74.2324 41.7416C86.5903 40.347 99.0924 45.9107 103.554 56.6012ZM137.229 45.821C132.836 45.8025 128.253 46.4101 127.483 47.6565C126.845 48.6884 126.735 49.9451 127.24 50.4496C128.953 52.162 145.822 49.6959 145.822 47.733C145.822 46.4834 141.622 45.839 137.229 45.821ZM6.28356 59.948C0.163218 58.8984 0.33336 61.1695 0.0211514 62.5321C-0.322542 64.0323 3.56527 66.1473 8.55293 66.1277C14.7177 66.1039 19.8378 64.5737 17.4105 63.0049C15.2785 61.6273 12.8098 61.0672 6.28356 59.948ZM81.0994 74.1288C84.5522 74.1235 84.8751 75.4263 83.6626 84.4801C82.9 90.1758 81.8872 96.0621 81.4146 97.561C79.176 104.664 76.6928 98.9561 76.9095 87.2097C77.1135 76.1321 77.754 74.133 81.0994 74.1288ZM128.381 83.7905C128.381 86.1519 130.456 87.2053 135.105 87.2053C143.445 87.2053 142.698 82.0697 134.21 81.0651C131.716 80.7264 128.44 80.9388 128.381 83.7905ZM26.4598 97.8679C18.1929 102.4 13.6858 107.958 15.1675 110.355C17.9573 114.869 21.4152 109.934 27.8621 104.091C31.44 100.849 31.8002 94.94 26.4598 97.8679ZM124.545 106.12C122.112 106.091 121.212 108.889 124.102 112.371C126.952 115.806 132.742 116.699 132.742 113.704C132.742 112.691 130.877 110.175 128.598 108.113C127.072 106.731 125.65 106.133 124.545 106.12ZM72.6136 106.25C73.8482 106.253 75.204 106.324 76.6227 106.438C82.2972 106.892 85.8261 105.627 85.7544 108.429C85.6832 111.231 79.8769 111.92 75.1086 111.453C70.34 110.986 66.3341 112.227 66.382 108.798C66.3013 106.853 68.9105 106.242 72.6136 106.25ZM71.2695 117.187C73.7349 117.229 76.4161 117.727 77.28 117.727C79.0075 117.727 84.9519 116.835 84.8201 120.047C84.6934 123.127 78.3985 122.088 75.9302 122.088C73.4609 122.088 66.5519 122.634 66.5546 119.381C66.5546 117.558 68.8041 117.145 71.2695 117.187Z" fill="#FDEA6B"/>
<path d="M35 46.5L38 135L101 145.5L109.5 111.5L120 56.5L101 35L71 27.5L35 46.5Z" fill="white"/>
<g clip-path="url(#clip1)">
<path fill-rule="evenodd" clip-rule="evenodd" d="M68.0102 8C68.0102 14.09 66.6202 18.53 64.6502 15.2C64.1102 14.28 62.9702 9.36 62.1302 4.27C60.9002 -3.15 61.2402 -5 63.8302 -5C67.6602 -5 68.0102 -0.57 68.0102 8ZM121.51 9.02C122.2 9.71 120.47 12.73 117.66 15.72C111.92 21.83 103.91 23.26 106.01 17.81C107.29 14.47 111.88 12.27 120.35 8.69C120.47 8.64 120.59 8.62 120.7 8.62C121.04 8.63 121.33 8.84 121.51 9.02ZM32.6402 28.89C32.6402 32.07 26.0502 29.05 23.0802 24.51C18.6002 17.68 18.6602 16.8 23.5702 16.8C26.8102 16.8 32.6402 24.57 32.6402 28.89ZM49.4802 77.9C32.0002 64.33 33.9302 32.95 74.6002 31.82C91.7602 31.34 101.01 38.73 105.91 48.33C113.35 62.92 107.26 76.87 94.9302 88.77C89.7102 93.8 89.3202 99.53 89.3202 109.93C89.3202 117.91 88.3602 121.95 86.2702 122.76C84.5902 123.4 82.7202 125.82 82.1102 128.14C80.5802 134 67.6702 135.52 65.4102 126.17C64.7502 123.42 61.0802 124.62 58.4802 121.45C56.7902 119.38 56.6202 113.71 56.6202 104.27C56.6202 93.1 58.0502 85.99 49.4802 77.9ZM101.55 51.6C97.0902 40.91 84.5902 35.35 72.2302 36.74C59.8802 38.14 46.2202 43.89 44.7402 56.36C42.8202 72.61 61.3902 73.15 62.3202 92.61C62.1902 94.1 69.3002 95.02 69.7202 91.57C70.0102 89.18 70.4902 85.19 69.7002 79.35C69.3702 75.39 68.2602 70.23 66.5002 67.9C59.0402 58.04 64.7702 50.26 72.9802 59.11C79.5302 66.19 81.4302 66.19 84.6402 59.14C86.0502 56.05 88.4202 53.92 89.9002 54.42C92.8502 55.4 93.6702 66.56 91.4102 70.21C89.5402 73.24 88.8102 76.25 88.2502 79.74C86.7402 89.2 90.8902 86.66 97.9202 76.28C103.94 67.4 103.91 57.25 101.55 51.6ZM143.82 42.73C143.82 44.7 126.95 47.16 125.24 45.45C124.74 44.95 124.84 43.69 125.48 42.66C126.25 41.41 130.84 40.8 135.23 40.82C139.62 40.84 143.82 41.48 143.82 42.73ZM4.28022 54.95C10.8102 56.07 13.2802 56.63 15.4102 58C17.8402 59.57 12.7202 61.1 6.55022 61.13C1.57022 61.15 -2.31978 59.03 -1.97978 57.53C-1.66978 56.17 -1.83978 53.9 4.28022 54.95ZM74.9102 82.21C74.6902 93.96 77.1802 99.66 79.4102 92.56C79.8902 91.06 80.9002 85.18 81.6602 79.48C82.8802 70.43 82.5502 69.12 79.1002 69.13C75.7502 69.13 75.1102 71.13 74.9102 82.21ZM126.38 78.79C126.44 75.94 129.72 75.73 132.21 76.07C140.7 77.07 141.45 82.21 133.1 82.21C128.46 82.21 126.38 81.15 126.38 78.79ZM25.8602 99.09C19.4202 104.93 15.9602 109.87 13.1702 105.36C11.6902 102.96 16.1902 97.4 24.4602 92.87C29.8002 89.94 29.4402 95.85 25.8602 99.09ZM122.54 101.12C123.65 101.13 125.07 101.73 126.6 103.11C128.88 105.18 130.74 107.69 130.74 108.7C130.74 111.7 124.95 110.81 122.1 107.37C119.21 103.89 120.11 101.09 122.54 101.12ZM64.3802 103.8C64.3302 107.23 68.3402 105.99 73.1102 106.45C77.8802 106.92 83.6802 106.23 83.7502 103.43C83.8302 100.63 80.3002 101.89 74.6202 101.44C73.2002 101.32 71.8502 101.25 70.6102 101.25C66.9102 101.24 64.3002 101.85 64.3802 103.8ZM64.5502 114.38C64.5502 117.63 71.4602 117.09 73.9302 117.09C76.4002 117.09 82.6902 118.13 82.8202 115.05C82.9502 111.84 77.0102 112.73 75.2802 112.73C74.4202 112.73 71.7302 112.23 69.2702 112.19C66.8002 112.14 64.5502 112.56 64.5502 114.38Z" fill="#030303"/>
</g>
</g>
<defs>
<clipPath id="clip0">
<rect width="145.822" height="137.859" fill="white"/>
</clipPath>
<clipPath id="clip1">
<rect width="80" height="116" fill="white" transform="translate(35 26)"/>
</clipPath>
</defs>
</svg>
